Coordinates
version=1
nRows=16
nColumns=40
inDegrees=yes

Units are S.I. units (second, meters, Newtons, ...)
Angles are in degrees.

endheader
time	pelvis_tilt	pelvis_list	pelvis_rotation	pelvis_tx	pelvis_ty	pelvis_tz	hip_flexion_r	hip_adduction_r	hip_rotation_r	knee_angle_r	knee_angle_r_beta	ankle_angle_r	subtalar_angle_r	mtp_angle_r	hip_flexion_l	hip_adduction_l	hip_rotation_l	knee_angle_l	knee_angle_l_beta	ankle_angle_l	subtalar_angle_l	mtp_angle_l	lumbar_extension	lumbar_bending	lumbar_rotation	arm_flex_r	arm_add_r	arm_rot_r	elbow_flex_r	pro_sup_r	wrist_flex_r	wrist_dev_r	arm_flex_l	arm_add_l	arm_rot_l	elbow_flex_l	pro_sup_l	wrist_flex_l	wrist_dev_l
      2.37000000	     -3.55108849	     -1.59649223	     -2.10873699	      0.67552410	      0.88215073	      1.48204815	      0.20865022	      3.03584951	    -15.89604241	    -21.34549169	     -0.37254911	     14.88677618	      4.45504539	     -4.08884116	     34.39942230	      6.84114681	     20.01066402	    -23.64693389	     -0.41271685	      6.69272605	      6.45413051	      8.68742718	     -3.20796212	      2.34292045	      1.40279499	      6.07878478	    -11.18365718	    -15.01942302	     37.23215671	     89.95437384	      0.00000000	      0.00000000	     -5.34492690	      6.50861687	     20.25469968	     22.73335491	     89.95437384	      0.00000000	      0.00000000
      2.38000000	     -3.59257536	     -1.69184558	     -2.37071872	      0.68334750	      0.88138276	      1.48159705	     -0.29849939	      3.03870557	    -15.69494444	    -21.34951008	     -0.37261924	     15.19750080	      4.60304247	     -4.19771915	     34.39325294	      6.96804397	     20.02324798	    -23.69730368	     -0.41359597	      6.73965123	      6.55706087	      8.50402758	     -3.05103985	      2.36756016	      1.65295383	      6.08719128	    -11.20643710	    -14.73238499	     36.90557393	     89.95437384	      0.00000000	      0.00000000	     -5.33967536	      6.50885879	     20.30986180	     22.33866150	     89.95437384	      0.00000000	      0.00000000
      2.39000000	     -3.70726260	     -1.69380456	     -2.52447409	      0.69123165	      0.88038854	      1.48110788	     -0.55297351	      2.92121824	    -15.47040924	    -21.74673768	     -0.37955217	     14.92157831	      4.49397834	     -4.14681749	     34.48618457	      6.91964043	     19.65816066	    -23.95192224	     -0.41803991	      6.54663942	      6.42886561	      8.33089691	     -2.84860372	      2.26634786	      1.75014034	      5.86895125	    -11.09910646	    -14.59953559	     36.99565791	     89.95437384	      0.00000000	      0.00000000	     -5.59863911	      6.56672145	     20.28205328	     22.46451077	     89.95437384	      0.00000000	      0.00000000
      2.40000000	     -3.48250542	     -1.82319128	     -2.96272464	      0.69938199	      0.88006911	      1.48090272	     -1.40367822	      2.98087567	    -14.81524635	    -21.67961499	     -0.37838066	     15.32974593	      4.97493581	     -4.39669584	     34.10120486	      7.11864682	     19.41273699	    -24.39001110	     -0.42568600	      6.74149905	      7.12785559	      8.05066796	     -2.99276326	      2.29633830	      2.16072913	      5.93143051	    -11.14142765	    -14.19958886	     36.49305058	     89.95437384	      0.00000000	      0.00000000	     -5.41055940	      6.54490977	     20.60307274	     21.84603088	     89.95437384	      0.00000000	      0.00000000
      2.41000000	     -3.63446334	     -1.82554153	     -3.12014029	      0.70767390	      0.87903688	      1.48019630	     -1.61852789	      2.82547438	    -14.62534558	    -22.10240787	     -0.38575979	     14.99918889	      4.81176762	     -4.32709389	     34.06071999	      7.02816820	     18.96874916	    -24.72762006	     -0.43157839	      6.50077241	      6.96538317	      7.87976551	     -2.70081651	      2.20044809	      2.26631314	      5.60269897	    -11.06428236	    -14.09684593	     36.56780852	     89.95437384	      0.00000000	      0.00000000	     -5.69740663	      6.58950093	     20.58198110	     22.06484336	     89.95437384	      0.00000000	      0.00000000
      2.42000000	     -3.45441804	     -1.94154118	     -3.47077399	      0.71615455	      0.87864778	      1.47979247	     -2.40183492	      2.82150203	    -14.17581010	    -22.09145748	     -0.38556867	     15.12303385	      5.17116510	     -4.58146802	     33.68975503	      7.08563911	     18.29210566	    -25.40960150	     -0.44348121	      6.44982285	      8.01254291	      7.50630366	     -2.77987698	      2.19260002	      2.63167768	      5.52935934	    -11.04811942	    -13.95290844	     36.08616470	     89.95437384	      0.00000000	      0.00000000	     -5.59795139	      6.53494936	     21.11136163	     21.76379210	     89.95437384	      0.00000000	      0.00000000
      2.43000000	     -3.61943650	     -1.94995045	     -3.65189988	      0.72486004	      0.87763099	      1.47904353	     -2.61472575	      2.65063780	    -14.00989142	    -22.52769045	     -0.39318237	     14.79891031	      4.98678599	     -4.50993499	     33.52788407	      6.98457315	     17.83065984	    -25.82532970	     -0.45073703	      6.16215045	      7.85133302	      7.34846569	     -2.40512874	      2.09456535	      2.73101713	      5.13958745	    -10.94373301	    -13.84859139	     36.10390018	     89.95437384	      0.00000000	      0.00000000	     -5.89136214	      6.58576795	     21.09324326	     21.96665597	     89.95437384	      0.00000000	      0.00000000
      2.44000000	     -3.54932533	     -1.98883349	     -3.95523414	      0.73338908	      0.87715185	      1.47829869	     -3.22875758	      2.54220990	    -13.47081725	    -22.59256198	     -0.39431459	     14.70405194	      5.05750553	     -4.83530106	     33.35983343	      6.98758120	     17.72704845	    -26.68328740	     -0.46571122	      5.40298688	      9.84271647	      7.09440169	     -2.34835185	      2.00973276	      2.98361072	      5.06076069	    -10.88867009	    -13.70018555	     35.52859204	     89.95437384	      0.00000000	      0.00000000	     -5.81131694	      6.51233235	     21.77299828	     21.72378354	     89.95437384	      0.00000000	      0.00000000
      2.45000000	     -3.65236469	     -1.91900301	     -4.06130209	      0.74192898	      0.87651920	      1.47739477	     -3.51871236	      2.30624904	    -13.30060962	    -22.92440616	     -0.40010637	     14.53091828	      4.83523548	     -4.82278588	     33.38466759	      6.90984593	     17.64555045	    -27.30623374	     -0.47658369	      4.81229372	     10.08905473	      6.98715796	     -2.05913023	      1.79098291	      3.07382817	      4.80254553	    -10.78238265	    -13.62719363	     35.18175051	     89.95437384	      0.00000000	      0.00000000	     -5.88326185	      6.59387563	     21.77550957	     21.74334691	     89.95437384	      0.00000000	      0.00000000
      2.46000000	     -3.79660742	     -1.90460414	     -4.05922488	      0.75057520	      0.87597603	      1.47623577	     -3.67641568	      2.13890047	    -13.00752693	    -23.44521783	     -0.40919624	     14.14865353	      4.65771195	     -4.73668857	     33.34499088	      6.79721564	     17.32489518	    -27.67483070	     -0.48301692	      4.50211047	      9.88280279	      6.85303956	     -1.75182093	      1.65525228	      3.02589469	      4.34967247	    -10.68853068	    -13.56211122	     35.16471367	     89.95437384	      0.00000000	      0.00000000	     -6.07256941	      6.65463931	     21.73449453	     22.00143835	     89.95437384	      0.00000000	      0.00000000
      2.47000000	     -3.83154570	     -1.61846798	     -4.22409816	      0.75896402	      0.87583490	      1.47520682	     -3.86515460	      1.68011813	    -12.43400220	    -24.00913370	     -0.41903843	     13.88398892	      4.24869958	     -4.72801725	     33.42217870	      6.61495223	     17.45625483	    -28.62676771	     -0.49963135	      3.28655552	     10.85895141	      6.83537457	     -1.54084933	      1.19149090	      3.07009336	      4.43520418	    -10.41018981	    -13.72051091	     34.14472186	     89.95437384	      0.00000000	      0.00000000	     -5.92159583	      6.75931933	     21.91133913	     21.65392600	     89.95437384	      0.00000000	      0.00000000
      2.48000000	     -4.26411149	     -1.20491817	     -4.33938806	      0.76711828	      0.87541900	      1.47373669	     -3.33589749	      1.10663122	    -11.78858201	    -25.05552668	     -0.43730144	     13.36457568	      2.89176718	     -4.84753416	     33.68223593	      5.89611880	     16.50726404	    -28.95110456	     -0.50529210	      2.34137758	     12.86270808	      6.38022646	     -0.93352460	      0.65757349	      3.10838918	      4.17681024	    -10.13679173	    -14.21400656	     33.69458506	     89.95437384	      0.00000000	      0.00000000	     -5.79401565	      6.70014369	     22.85906371	     21.50824439	     89.95437384	      0.00000000	      0.00000000
      2.49000000	     -4.27584411	     -0.98330522	     -4.26689694	      0.77603159	      0.87558651	      1.47229196	     -3.49132605	      0.69774852	    -11.55319029	    -25.78427664	     -0.45002052	     12.77441604	      2.50466242	     -4.73966586	     33.57755659	      5.57363368	     16.21850897	    -29.70392056	     -0.51843121	      1.85650009	     12.89686226	      6.18706768	     -0.72693980	      0.28455573	      2.97117176	      3.86125430	     -9.95430431	    -14.26730408	     33.23822158	     89.95437384	      0.00000000	      0.00000000	     -5.82379080	      6.80449120	     22.86037909	     21.56947911	     89.95437384	      0.00000000	      0.00000000
      2.50000000	     -4.28845907	     -0.60308776	     -4.19720726	      0.78507335	      0.87593514	      1.47068319	     -3.49296981	      0.07538887	    -11.35176902	    -26.76672875	     -0.46716755	     11.87817554	      1.73988848	     -4.56164192	     33.33571494	      4.95130006	     15.73534192	    -30.19117120	     -0.52693534	      1.81350336	     13.48597251	      5.91222363	     -0.49270054	     -0.25653776	      2.85047050	      3.50993054	     -9.68319463	    -14.66383406	     32.77724851	     89.95437384	      0.00000000	      0.00000000	     -5.84282007	      6.87535629	     23.10108024	     21.66902305	     89.95437384	      0.00000000	      0.00000000
      2.51000000	     -4.23351326	     -0.31362000	     -4.03877367	      0.79419064	      0.87656806	      1.46893630	     -3.52892471	     -0.45262965	    -11.16314947	    -27.81899937	     -0.48553313	     10.77598410	      1.14888638	     -4.34589335	     32.94402853	      4.31753403	     15.10687035	    -30.58412270	     -0.53379364	      1.90669465	     14.03358832	      5.67920406	     -0.34543967	     -0.68981847	      2.64496966	      3.10931134	     -9.45243190	    -14.91309647	     32.39249060	     89.95437384	      0.00000000	      0.00000000	     -5.81726383	      6.92760247	     23.45445651	     21.74592351	     89.95437384	      0.00000000	      0.00000000
      2.52000000	     -4.15426123	     -0.14423872	     -3.83533325	      0.80335532	      0.87726656	      1.46723082	     -3.49849048	     -0.84013700	    -11.06566344	    -29.04988860	     -0.50701620	      9.61963428	      0.61447739	     -4.08893518	     32.53721993	      3.84688366	     14.63824338	    -31.07310788	     -0.54232804	      2.16535776	     14.10504681	      5.49100366	     -0.21298714	     -1.00304366	      2.40655959	      2.65613439	     -9.29405874	    -15.00040261	     32.05560278	     89.95437384	      0.00000000	      0.00000000	     -5.81105928	      6.98286064	     23.63663091	     21.91199669	     89.95437384	      0.00000000	      0.00000000
